<svg id="wave" style="transform:rotate(0deg); transition: 0.3s" viewBox="0 0 1440 180" version="1.1" xmlns="http://www.w3.org/2000/svg"><defs><linearGradient id="sw-gradient-0" x1="0" x2="0" y1="1" y2="0"><stop stop-color="rgba(20, 2, 43, 1)" offset="0%"></stop><stop stop-color="rgba(20, 2, 43, 1)" offset="100%"></stop></linearGradient></defs><path style="transform:translate(0, 0px); opacity:1" fill="url(#sw-gradient-0)" d="M0,36L60,42C120,48,240,60,360,81C480,102,600,132,720,147C840,162,960,162,1080,138C1200,114,1320,66,1440,57C1560,48,1680,78,1800,78C1920,78,2040,48,2160,45C2280,42,2400,66,2520,81C2640,96,2760,102,2880,87C3000,72,3120,36,3240,45C3360,54,3480,108,3600,129C3720,150,3840,138,3960,135C4080,132,4200,138,4320,141C4440,144,4560,144,4680,147C4800,150,4920,156,5040,156C5160,156,5280,150,5400,129C5520,108,5640,72,5760,75C5880,78,6000,120,6120,120C6240,120,6360,78,6480,66C6600,54,6720,72,6840,84C6960,96,7080,102,7200,105C7320,108,7440,108,7560,105C7680,102,7800,96,7920,90C8040,84,8160,78,8280,69C8400,60,8520,48,8580,42L8640,36L8640,180L8580,180C8520,180,8400,180,8280,180C8160,180,8040,180,7920,180C7800,180,7680,180,7560,180C7440,180,7320,180,7200,180C7080,180,6960,180,6840,180C6720,180,6600,180,6480,180C6360,180,6240,180,6120,180C6000,180,5880,180,5760,180C5640,180,5520,180,5400,180C5280,180,5160,180,5040,180C4920,180,4800,180,4680,180C4560,180,4440,180,4320,180C4200,180,4080,180,3960,180C3840,180,3720,180,3600,180C3480,180,3360,180,3240,180C3120,180,3000,180,2880,180C2760,180,2640,180,2520,180C2400,180,2280,180,2160,180C2040,180,1920,180,1800,180C1680,180,1560,180,1440,180C1320,180,1200,180,1080,180C960,180,840,180,720,180C600,180,480,180,360,180C240,180,120,180,60,180L0,180Z"></path></svg>