<svg id="wave" style="transform:rotate(180deg); transition: 0.3s" viewBox="0 0 1440 190" version="1.1" xmlns="http://www.w3.org/2000/svg"><defs><linearGradient id="sw-gradient-0" x1="0" x2="0" y1="1" y2="0"><stop stop-color="rgba(20, 2, 43, 1)" offset="0%"></stop><stop stop-color="rgba(20, 2, 43, 1)" offset="100%"></stop></linearGradient></defs><path style="transform:translate(0, 0px); opacity:1" fill="url(#sw-gradient-0)" d="M0,114L48,98.2C96,82,192,51,288,50.7C384,51,480,82,576,82.3C672,82,768,51,864,47.5C960,44,1056,70,1152,79.2C1248,89,1344,82,1440,88.7C1536,95,1632,114,1728,129.8C1824,146,1920,158,2016,139.3C2112,120,2208,70,2304,44.3C2400,19,2496,19,2592,25.3C2688,32,2784,44,2880,69.7C2976,95,3072,133,3168,129.8C3264,127,3360,82,3456,69.7C3552,57,3648,76,3744,95C3840,114,3936,133,4032,145.7C4128,158,4224,165,4320,152C4416,139,4512,108,4608,91.8C4704,76,4800,76,4896,88.7C4992,101,5088,127,5184,139.3C5280,152,5376,152,5472,139.3C5568,127,5664,101,5760,95C5856,89,5952,101,6048,101.3C6144,101,6240,89,6336,91.8C6432,95,6528,114,6624,110.8C6720,108,6816,82,6864,69.7L6912,57L6912,190L6864,190C6816,190,6720,190,6624,190C6528,190,6432,190,6336,190C6240,190,6144,190,6048,190C5952,190,5856,190,5760,190C5664,190,5568,190,5472,190C5376,190,5280,190,5184,190C5088,190,4992,190,4896,190C4800,190,4704,190,4608,190C4512,190,4416,190,4320,190C4224,190,4128,190,4032,190C3936,190,3840,190,3744,190C3648,190,3552,190,3456,190C3360,190,3264,190,3168,190C3072,190,2976,190,2880,190C2784,190,2688,190,2592,190C2496,190,2400,190,2304,190C2208,190,2112,190,2016,190C1920,190,1824,190,1728,190C1632,190,1536,190,1440,190C1344,190,1248,190,1152,190C1056,190,960,190,864,190C768,190,672,190,576,190C480,190,384,190,288,190C192,190,96,190,48,190L0,190Z"></path></svg>