<svg id="wave" style="transform:rotate(0deg); transition: 0.3s" viewBox="0 0 1440 180" version="1.1" xmlns="http://www.w3.org/2000/svg"><defs><linearGradient id="sw-gradient-0" x1="0" x2="0" y1="1" y2="0"><stop stop-color="rgba(207, 31, 70, 1)" offset="0%"></stop><stop stop-color="rgba(207, 31, 70, 1)" offset="100%"></stop></linearGradient></defs><path style="transform:translate(0, 0px); opacity:1" fill="url(#sw-gradient-0)" d="M0,18L26.7,36C53.3,54,107,90,160,114C213.3,138,267,150,320,150C373.3,150,427,138,480,123C533.3,108,587,90,640,84C693.3,78,747,84,800,99C853.3,114,907,138,960,132C1013.3,126,1067,90,1120,69C1173.3,48,1227,42,1280,54C1333.3,66,1387,96,1440,96C1493.3,96,1547,66,1600,63C1653.3,60,1707,84,1760,81C1813.3,78,1867,48,1920,33C1973.3,18,2027,18,2080,21C2133.3,24,2187,30,2240,30C2293.3,30,2347,24,2400,18C2453.3,12,2507,6,2560,6C2613.3,6,2667,12,2720,33C2773.3,54,2827,90,2880,99C2933.3,108,2987,90,3040,96C3093.3,102,3147,132,3200,126C3253.3,120,3307,78,3360,54C3413.3,30,3467,24,3520,18C3573.3,12,3627,6,3680,24C3733.3,42,3787,84,3813,105L3840,126L3840,180L3813.3,180C3786.7,180,3733,180,3680,180C3626.7,180,3573,180,3520,180C3466.7,180,3413,180,3360,180C3306.7,180,3253,180,3200,180C3146.7,180,3093,180,3040,180C2986.7,180,2933,180,2880,180C2826.7,180,2773,180,2720,180C2666.7,180,2613,180,2560,180C2506.7,180,2453,180,2400,180C2346.7,180,2293,180,2240,180C2186.7,180,2133,180,2080,180C2026.7,180,1973,180,1920,180C1866.7,180,1813,180,1760,180C1706.7,180,1653,180,1600,180C1546.7,180,1493,180,1440,180C1386.7,180,1333,180,1280,180C1226.7,180,1173,180,1120,180C1066.7,180,1013,180,960,180C906.7,180,853,180,800,180C746.7,180,693,180,640,180C586.7,180,533,180,480,180C426.7,180,373,180,320,180C266.7,180,213,180,160,180C106.7,180,53,180,27,180L0,180Z"></path></svg>